<svg width="186" height="113" viewBox="0 0 186 113" fill="none" xmlns="http://www.w3.org/2000/svg">
<g clip-path="url(#clip0_2216_11028)">
<path d="M16.6693 93.2492L16.9945 89.2075H1.86159L0 112.381H5.12105L5.88504 102.619H15.9153L16.2406 98.5754H6.21866L6.65069 93.2492H16.6693Z" fill="#C22546"/>
<path d="M20.4827 89.2075H25.5037L23.6421 112.381H18.6211L20.4827 89.2075Z" fill="#C22546"/>
<path d="M44.2785 96.2437L42.9824 112.384H38.0949L38.2617 110.313C37.6845 111.058 36.9539 111.634 36.0665 112.039C35.1791 112.445 34.1932 112.648 33.1073 112.648C31.3341 112.648 29.9813 112.155 29.0505 111.169C28.1197 110.183 27.6543 108.748 27.6543 106.863C27.6543 106.403 27.666 106.053 27.6877 105.811L28.4516 96.2453H33.4726L32.7086 105.514C32.6202 106.588 32.7854 107.399 33.2074 107.947C33.6277 108.494 34.2816 108.768 35.1691 108.768C36.1449 108.768 36.9256 108.445 37.5127 107.798C38.0999 107.152 38.4385 106.281 38.5269 105.184L39.2592 96.2437H44.2802H44.2785Z" fill="#C22546"/>
<path d="M55.0797 106.037L55.5768 99.9556H58.6828L58.9814 96.2404H55.877L56.2424 91.5078H51.2214L50.8561 96.2404H47.7634L47.4648 99.9556H50.5558L50.0587 106.037C50.0354 106.233 50.0254 106.53 50.0254 106.924C50.0254 108.809 50.5892 110.234 51.7201 111.197C52.8511 112.161 54.5359 112.643 56.7745 112.643C57.2265 112.643 57.6886 112.603 57.6886 112.603C58.0739 112.569 58.4042 112.521 58.6678 112.473L58.953 108.923C58.4609 108.971 58.0339 108.995 57.6719 108.995C55.7886 108.995 54.9229 108.009 55.0797 106.037Z" fill="#C22546"/>
<path d="M89.719 97.8351C91.0267 99.1608 91.6806 101.072 91.6806 103.57C91.6806 104.096 91.6473 104.655 91.5806 105.247H80.9731C81.1733 107.703 82.5361 108.929 85.0633 108.929C86.7264 108.929 88.3111 108.403 89.819 107.351L90.8833 110.671C90.1743 111.284 89.2652 111.767 88.156 112.117C87.0467 112.467 85.8957 112.643 84.698 112.643C82.9899 112.643 81.4936 112.315 80.2092 111.657C78.9231 110.999 77.9255 110.074 77.2166 108.88C76.5076 107.686 76.1523 106.299 76.1523 104.721C76.1523 102.99 76.5126 101.451 77.2333 100.102C77.9539 98.7552 78.9397 97.7081 80.1925 96.9627C81.4452 96.2174 82.8581 95.8447 84.4328 95.8447C86.6497 95.8447 88.4112 96.5076 89.719 97.8334V97.8351ZM81.0732 102.782H87.5237C87.5237 101.598 87.2635 100.717 86.7431 100.135C86.2226 99.555 85.507 99.2647 84.5979 99.2647C82.6246 99.2647 81.4502 100.437 81.0732 102.782Z" fill="#C22546"/>
<path d="M106.013 95.8793C103.419 96.0771 101.546 96.9429 100.393 98.4764L100.56 96.2734H95.7707L94.4746 112.381H99.4956L100.161 103.966C100.271 102.76 100.615 101.873 101.192 101.303C101.768 100.734 102.72 100.383 104.051 100.251L106.827 99.9556L107.159 95.8149L106.013 95.8793Z" fill="#C22546"/>
<path d="M122.852 97.375C123.949 98.3941 124.498 99.9342 124.498 101.994C124.498 102.475 124.487 102.838 124.465 103.079L123.733 112.381H118.977L119.144 110.178C118.722 110.966 118.134 111.574 117.38 112.002C116.626 112.429 115.751 112.643 114.753 112.643C113.667 112.643 112.691 112.435 111.827 112.018C110.963 111.602 110.286 111.032 109.799 110.308C109.312 109.586 109.068 108.774 109.068 107.876C109.068 106.649 109.384 105.663 110.016 104.917C110.648 104.172 111.651 103.631 113.025 103.29C114.4 102.95 116.228 102.78 118.511 102.78H119.709L119.742 102.353C119.809 101.389 119.614 100.683 119.16 100.233C118.705 99.7842 117.958 99.5583 116.915 99.5583C116.094 99.5583 115.214 99.7017 114.271 99.9853C113.329 100.271 112.436 100.665 111.594 101.169L110.496 97.8499C111.405 97.2579 112.536 96.7764 113.887 96.4037C115.239 96.0311 116.558 95.8447 117.844 95.8447C120.083 95.8447 121.751 96.3543 122.848 97.3733L122.852 97.375ZM118.43 108.255C119.039 107.609 119.389 106.771 119.477 105.74L119.511 105.181H118.613C116.883 105.181 115.676 105.346 114.988 105.674C114.301 106.003 113.958 106.562 113.958 107.351C113.958 107.922 114.158 108.375 114.556 108.715C114.955 109.055 115.487 109.225 116.153 109.225C117.062 109.225 117.821 108.901 118.43 108.255Z" fill="#C22546"/>
<path d="M142.672 97.3418C143.603 98.3395 144.068 99.8021 144.068 101.73C144.068 102.19 144.057 102.541 144.035 102.782L143.271 112.381H138.25L139.014 102.98C139.102 101.906 138.931 101.095 138.498 100.547C138.066 100 137.396 99.7263 136.487 99.7263C135.444 99.7263 134.625 100.049 134.026 100.696C133.427 101.342 133.084 102.224 132.995 103.343L132.263 112.382H127.242L128.538 96.2419H133.426L133.259 98.1482C133.834 97.4243 134.578 96.8603 135.488 96.4547C136.397 96.049 137.416 95.8462 138.547 95.8462C140.365 95.8462 141.74 96.3442 142.67 97.3418H142.672Z" fill="#C22546"/>
<path d="M165.974 89.2074L164.113 112.381H159.158L159.325 110.375C158.793 111.076 158.094 111.63 157.23 112.036C156.366 112.442 155.424 112.644 154.404 112.644C153.03 112.644 151.815 112.333 150.763 111.708C149.71 111.083 148.895 110.186 148.319 109.012C147.742 107.839 147.455 106.464 147.455 104.886C147.455 103.133 147.782 101.572 148.436 100.201C149.09 98.8326 150.004 97.764 151.18 96.9956C152.354 96.2288 153.707 95.8446 155.237 95.8446C157.454 95.8446 159.115 96.6559 160.224 98.2768L160.957 89.2041H165.978L165.974 89.2074ZM158.841 107.549C159.517 106.65 159.856 105.457 159.856 103.966C159.856 102.475 159.545 101.456 158.925 100.711C158.304 99.9654 157.417 99.5927 156.264 99.5927C155.112 99.5927 154.131 100.036 153.455 100.923C152.78 101.811 152.441 103.033 152.441 104.589C152.441 105.969 152.756 107.033 153.389 107.778C154.021 108.524 154.923 108.896 156.099 108.896C157.275 108.896 158.166 108.448 158.843 107.549H158.841Z" fill="#C22546"/>
<path d="M172.359 111.658C171.073 111 170.082 110.075 169.384 108.881C168.685 107.687 168.336 106.291 168.336 104.69C168.336 102.894 168.696 101.326 169.417 99.9899C170.137 98.6542 171.157 97.6286 172.476 96.9162C173.796 96.2038 175.33 95.8477 177.082 95.8477C178.833 95.8477 180.351 96.1758 181.637 96.8338C182.923 97.4917 183.916 98.4168 184.613 99.6107C185.312 100.806 185.661 102.203 185.661 103.802C185.661 105.621 185.3 107.194 184.58 108.52C183.859 109.846 182.84 110.865 181.521 111.577C180.201 112.29 178.666 112.646 176.915 112.646C175.163 112.646 173.645 112.318 172.359 111.66V111.658ZM179.726 107.45C180.358 106.485 180.673 105.225 180.673 103.67C180.673 100.953 179.497 99.5942 177.148 99.5942C175.862 99.5942 174.903 100.076 174.273 101.04C173.64 102.005 173.325 103.253 173.325 104.788C173.325 107.527 174.5 108.898 176.85 108.898C178.136 108.898 179.095 108.416 179.726 107.452V107.45Z" fill="#C22546"/>
<path d="M69.8082 106.037L70.3053 99.9556H73.4113L73.7099 96.2404H70.6056L70.9709 91.5078H65.9499L65.5846 96.2404H62.4919L62.1934 99.9556H65.2843L64.7872 106.037C64.7639 106.233 64.7539 106.53 64.7539 106.924C64.7539 108.809 65.3177 110.234 66.4487 111.197C67.5796 112.161 69.2644 112.643 71.503 112.643C71.955 112.643 72.4171 112.603 72.4171 112.603C72.8024 112.569 73.1327 112.521 73.3963 112.473L73.6815 108.923C73.1894 108.971 72.7624 108.995 72.4004 108.995C70.5172 108.995 69.6514 108.009 69.8082 106.037Z" fill="#C22546"/>
<path d="M72.098 19.8254L116.329 0L116.253 17.1114L69.3438 38.1375L69.4081 23.9311C69.414 22.3253 70.6199 20.4851 72.1009 19.8225L72.098 19.8254Z" fill="#C22546"/>
<path d="M69.4062 41.3259L116.316 20.2998L116.251 34.6683C116.245 36.1844 115.107 37.9204 113.711 38.5454L69.3301 58.4373L69.4062 41.3259Z" fill="#C22546"/>
<path d="M69.4003 61.7159L90.5588 52.2314L90.5003 65.1966C90.4944 66.5913 89.4495 68.1855 88.1646 68.7613L69.3301 77.2041L69.3974 61.7159H69.4003Z" fill="#C22546"/>
<path d="M108.919 58.585C112.934 58.585 116.189 55.5369 116.189 51.7769C116.189 48.0168 112.934 44.9688 108.919 44.9688C104.904 44.9688 101.648 48.0168 101.648 51.7769C101.648 55.5369 104.904 58.585 108.919 58.585Z" fill="#C22546"/>
</g>
<defs>
<clipPath id="clip0_2216_11028">
<rect width="186" height="113" fill="white"/>
</clipPath>
</defs>
</svg>
