<svg width="158" height="32" viewBox="0 0 158 32" fill="none" xmlns="http://www.w3.org/2000/svg">
<g clip-path="url(#clip0_2216_11107)">
<path d="M36.6337 10.4169L36.8673 7.47754H25.9991L24.6621 24.3308H28.34L28.8886 17.2312H36.0922L36.3258 14.2906H29.1282L29.4385 10.4169H36.6337Z" fill="#C22546"/>
<path d="M39.3721 7.47754H42.9781L41.6411 24.3308H38.0352L39.3721 7.47754Z" fill="#C22546"/>
<path d="M56.4617 12.5947L55.5308 24.3331H52.0207L52.1405 22.8269C51.726 23.3689 51.2013 23.7875 50.564 24.0825C49.9266 24.3775 49.2186 24.525 48.4387 24.525C47.1652 24.525 46.1937 24.1664 45.5252 23.4493C44.8567 22.7321 44.5225 21.6888 44.5225 20.318C44.5225 19.9834 44.5308 19.7292 44.5464 19.5529L45.0951 12.5959H48.7011L48.1524 19.337C48.0889 20.1177 48.2075 20.7078 48.5106 21.1059C48.8125 21.5041 49.2821 21.7031 49.9194 21.7031C50.6203 21.7031 51.1809 21.4681 51.6026 20.998C52.0243 20.5279 52.2675 19.8947 52.331 19.0971L52.8569 12.5947H56.4629H56.4617Z" fill="#C22546"/>
<path d="M64.2198 19.7171L64.5768 15.2942H66.8075L67.0219 12.5923H64.7925L65.0548 9.15039H61.4489L61.1865 12.5923H58.9654L58.751 15.2942H60.9709L60.6139 19.7171C60.5971 19.8598 60.5899 20.0757 60.5899 20.3623C60.5899 21.7331 60.9948 22.7692 61.8071 23.4696C62.6193 24.1712 63.8293 24.5214 65.437 24.5214C65.7616 24.5214 66.0935 24.4926 66.0935 24.4926C66.3702 24.4674 66.6074 24.4326 66.7967 24.3979L67.0016 21.8158C66.6482 21.8506 66.3415 21.8686 66.0815 21.8686C64.729 21.8686 64.1072 21.1514 64.2198 19.7171Z" fill="#C22546"/>
<path d="M89.0963 13.7522C90.0356 14.7164 90.5052 16.1064 90.5052 17.9232C90.5052 18.3058 90.4812 18.7124 90.4333 19.1429H82.8152C82.959 20.9286 83.9378 21.8209 85.7527 21.8209C86.9471 21.8209 88.0852 21.4383 89.1682 20.6732L89.9325 23.0873C89.4234 23.5334 88.7705 23.8848 87.9738 24.139C87.1771 24.3933 86.3505 24.5216 85.4904 24.5216C84.2636 24.5216 83.189 24.283 82.2666 23.8044C81.3429 23.3259 80.6265 22.6531 80.1173 21.7849C79.6082 20.9166 79.353 19.908 79.353 18.7603C79.353 17.5011 79.6118 16.3822 80.1293 15.4012C80.6469 14.4214 81.3549 13.6599 82.2546 13.1178C83.1543 12.5757 84.169 12.3047 85.2999 12.3047C86.892 12.3047 88.1571 12.7868 89.0963 13.751V13.7522ZM82.8871 17.35H87.5198C87.5198 16.4889 87.3329 15.8485 86.9591 15.4252C86.5853 15.003 86.0714 14.792 85.4185 14.792C84.0013 14.792 83.1579 15.6446 82.8871 17.35Z" fill="#C22546"/>
<path d="M100.798 12.3295C98.9354 12.4734 97.59 13.103 96.7622 14.2183L96.882 12.6161H93.4426L92.5117 24.3305H96.1177L96.5957 18.2107C96.6748 17.334 96.9215 16.6888 97.3361 16.2739C97.7494 15.8601 98.4334 15.6047 99.3894 15.5087L101.383 15.2941L101.621 12.2827L100.798 12.3295Z" fill="#C22546"/>
<path d="M112.892 13.4176C113.68 14.1588 114.075 15.2789 114.075 16.7767C114.075 17.1269 114.066 17.3908 114.051 17.5659L113.525 24.3309H110.109L110.229 22.7287C109.926 23.302 109.504 23.7445 108.963 24.0551C108.421 24.3657 107.792 24.5216 107.076 24.5216C106.296 24.5216 105.595 24.3705 104.975 24.0671C104.354 23.7649 103.868 23.3499 103.518 22.8234C103.168 22.2982 102.993 21.7081 102.993 21.0545C102.993 20.1623 103.22 19.4451 103.674 18.903C104.128 18.361 104.848 17.9676 105.835 17.7194C106.822 17.4723 108.135 17.3488 109.775 17.3488H110.635L110.659 17.0382C110.707 16.3366 110.567 15.8233 110.241 15.4959C109.914 15.1697 109.377 15.0054 108.629 15.0054C108.039 15.0054 107.407 15.1098 106.73 15.316C106.053 15.5235 105.412 15.8101 104.807 16.1771L104.019 13.763C104.672 13.3325 105.484 12.9823 106.454 12.7112C107.425 12.4402 108.372 12.3047 109.296 12.3047C110.904 12.3047 112.102 12.6753 112.89 13.4164L112.892 13.4176ZM109.716 21.3304C110.154 20.8602 110.405 20.251 110.469 19.5015L110.493 19.0949H109.848C108.606 19.0949 107.738 19.2149 107.245 19.4535C106.751 19.6922 106.504 20.0987 106.504 20.6732C106.504 21.0881 106.648 21.4179 106.935 21.665C107.221 21.912 107.603 22.0355 108.081 22.0355C108.734 22.0355 109.279 21.8005 109.716 21.3304Z" fill="#C22546"/>
<path d="M127.127 13.3934C127.795 14.119 128.13 15.1827 128.13 16.5846C128.13 16.9192 128.121 17.1747 128.106 17.3498L127.557 24.3307H123.951L124.5 17.4937C124.563 16.713 124.44 16.1229 124.129 15.7248C123.819 15.3266 123.338 15.1275 122.685 15.1275C121.936 15.1275 121.348 15.3626 120.918 15.8327C120.488 16.3028 120.241 16.9444 120.177 17.7575L119.651 24.3319H116.045L116.976 12.5935H120.486L120.367 13.9798C120.78 13.4534 121.314 13.0432 121.967 12.7482C122.62 12.4532 123.352 12.3057 124.164 12.3057C125.47 12.3057 126.457 12.6678 127.126 13.3934H127.127Z" fill="#C22546"/>
<path d="M143.862 7.4775L142.525 24.3308H138.967L139.086 22.8725C138.704 23.3822 138.202 23.7851 137.582 24.0801C136.961 24.3751 136.284 24.5227 135.552 24.5227C134.565 24.5227 133.693 24.296 132.937 23.8415C132.181 23.387 131.595 22.7346 131.182 21.8807C130.768 21.028 130.562 20.0278 130.562 18.8801C130.562 17.6053 130.796 16.4696 131.266 15.473C131.736 14.4776 132.392 13.7005 133.237 13.1416C134.08 12.584 135.052 12.3045 136.15 12.3045C137.742 12.3045 138.936 12.8946 139.732 14.0735L140.258 7.4751H143.864L143.862 7.4775ZM138.739 20.8169C139.224 20.1633 139.467 19.2951 139.467 18.2109C139.467 17.1268 139.245 16.3856 138.799 15.8436C138.353 15.3015 137.716 15.0305 136.888 15.0305C136.06 15.0305 135.356 15.3531 134.871 15.9983C134.386 16.6435 134.142 17.5321 134.142 18.6642C134.142 19.668 134.369 20.4416 134.823 20.9836C135.277 21.5257 135.925 21.7967 136.77 21.7967C137.614 21.7967 138.254 21.4705 138.74 20.8169H138.739Z" fill="#C22546"/>
<path d="M148.447 23.8057C147.524 23.3272 146.812 22.6544 146.31 21.7861C145.808 20.9179 145.558 19.9021 145.558 18.7376C145.558 17.4316 145.816 16.2911 146.334 15.3197C146.851 14.3483 147.583 13.6023 148.531 13.0843C149.479 12.5662 150.581 12.3071 151.839 12.3071C153.097 12.3071 154.187 12.5458 155.11 13.0243C156.034 13.5028 156.747 14.1756 157.248 15.0439C157.75 15.9133 158 16.9291 158 18.0924C158 19.4152 157.741 20.5593 157.224 21.5235C156.706 22.4877 155.974 23.2288 155.027 23.7469C154.079 24.265 152.977 24.524 151.719 24.524C150.461 24.524 149.371 24.2854 148.447 23.8069V23.8057ZM153.738 20.7452C154.192 20.0436 154.418 19.1274 154.418 17.9964C154.418 16.0201 153.573 15.0319 151.887 15.0319C150.963 15.0319 150.274 15.382 149.821 16.0836C149.367 16.7852 149.141 17.693 149.141 18.8095C149.141 20.8015 149.984 21.7981 151.672 21.7981C152.596 21.7981 153.285 21.4479 153.738 20.7464V20.7452Z" fill="#C22546"/>
<path d="M74.797 19.7171L75.154 15.2942H77.3846L77.5991 12.5923H75.3696L75.632 9.15039H72.026L71.7637 12.5923H69.5426L69.3281 15.2942H71.548L71.191 19.7171C71.1742 19.8598 71.167 20.0757 71.167 20.3623C71.167 21.7331 71.572 22.7692 72.3842 23.4696C73.1965 24.1712 74.4064 24.5214 76.0141 24.5214C76.3388 24.5214 76.6706 24.4926 76.6706 24.4926C76.9474 24.4674 77.1846 24.4326 77.3739 24.3979L77.5787 21.8158C77.2253 21.8506 76.9186 21.8686 76.6587 21.8686C75.3061 21.8686 74.6844 21.1514 74.797 19.7171Z" fill="#C22546"/>
<path d="M1.13317 8.21737L19.2373 0L19.2061 7.09246L0.00585938 15.8075L0.0322153 9.91912C0.0346113 9.25353 0.528185 8.4908 1.13437 8.21617L1.13317 8.21737Z" fill="#C22546"/>
<path d="M0.0311479 17.1291L19.2314 8.41406L19.2051 14.3696C19.2027 14.998 18.7366 15.7176 18.1652 15.9766L0 24.2216L0.0311479 17.1291Z" fill="#C22546"/>
<path d="M0.0287519 25.5801L8.68906 21.6489L8.6651 27.0228C8.6627 27.6009 8.23502 28.2617 7.7091 28.5003L0 31.9998L0.0275539 25.5801H0.0287519Z" fill="#C22546"/>
<path d="M16.2038 24.2829C17.8473 24.2829 19.1797 23.0195 19.1797 21.461C19.1797 19.9026 17.8473 18.6392 16.2038 18.6392C14.5603 18.6392 13.228 19.9026 13.228 21.461C13.228 23.0195 14.5603 24.2829 16.2038 24.2829Z" fill="#C22546"/>
</g>
<defs>
<clipPath id="clip0_2216_11107">
<rect width="158" height="32" fill="white"/>
</clipPath>
</defs>
</svg>
