<svg width="47" height="77" viewBox="0 0 47 77" fill="none" xmlns="http://www.w3.org/2000/svg">
<g clip-path="url(#clip0_2242_6586)">
<path d="M2.76788 19.8254L46.9991 0L46.923 17.1114L0.0136719 38.1375L0.0780636 23.9311C0.0839173 22.3253 1.2898 20.4851 2.77081 19.8225L2.76788 19.8254Z" fill="#C22546"/>
<path d="M0.0760993 41.3259L46.9854 20.2998L46.921 34.6683C46.9152 36.1844 45.7766 37.9204 44.3805 38.5454L0 58.4373L0.0760993 41.3259Z" fill="#C22546"/>
<path d="M0.0702455 61.7159L21.2288 52.2314L21.1702 65.1966C21.1644 66.5913 20.1195 68.1855 18.8346 68.7613L0 77.2041L0.0673186 61.7159H0.0702455Z" fill="#C22546"/>
<path d="M39.5888 58.585C43.6041 58.585 46.8592 55.5369 46.8592 51.7769C46.8592 48.0168 43.6041 44.9688 39.5888 44.9688C35.5734 44.9688 32.3184 48.0168 32.3184 51.7769C32.3184 55.5369 35.5734 58.585 39.5888 58.585Z" fill="#C22546"/>
</g>
<defs>
<clipPath id="clip0_2242_6586">
<rect width="47" height="77" fill="white"/>
</clipPath>
</defs>
</svg>
