<svg width="218" height="44" viewBox="0 0 218 44" fill="none" xmlns="http://www.w3.org/2000/svg">
<g clip-path="url(#clip0_2216_10563)">
<path d="M50.3801 14.3234L50.7014 10.2817H35.7547L33.916 33.455H38.974L39.7286 23.693H49.6354L49.9567 19.6497H40.0581L40.4849 14.3234H50.3801Z" fill="white"/>
<path d="M54.1473 10.2817H59.1064L57.2678 33.455H52.3086L54.1473 10.2817Z" fill="white"/>
<path d="M77.6481 17.3179L76.368 33.4582H71.5406L71.7054 31.3871C71.1353 32.1324 70.4137 32.7079 69.5372 33.1135C68.6607 33.5192 67.687 33.722 66.6144 33.722C64.863 33.722 63.5269 33.229 62.6075 32.2429C61.6882 31.2568 61.2285 29.8222 61.2285 27.9374C61.2285 27.4773 61.24 27.1277 61.2615 26.8853L62.0161 17.3195H66.9752L66.2206 26.5885C66.1333 27.662 66.2964 28.4733 66.7133 29.0208C67.1284 29.5682 67.7743 29.842 68.6508 29.842C69.6146 29.842 70.3857 29.5187 70.9656 28.8723C71.5456 28.2259 71.88 27.3553 71.9673 26.2587L72.6906 17.3179H77.6498H77.6481Z" fill="white"/>
<path d="M88.318 27.1113L88.809 21.0298H91.8767L92.1717 17.3146H89.1055L89.4664 12.582H84.5072L84.1464 17.3146H81.0918L80.7969 21.0298H83.8498L83.3588 27.1113C83.3358 27.3075 83.3259 27.6043 83.3259 27.9984C83.3259 29.8832 83.8828 31.308 84.9998 32.271C86.1169 33.2356 87.7809 33.7171 89.9919 33.7171C90.4384 33.7171 90.8948 33.6776 90.8948 33.6776C91.2754 33.6429 91.6016 33.5951 91.8619 33.5473L92.1437 29.997C91.6576 30.0448 91.2358 30.0696 90.8783 30.0696C89.0182 30.0696 88.1631 29.0835 88.318 27.1113Z" fill="white"/>
<path d="M122.531 18.9093C123.822 20.2351 124.468 22.1462 124.468 24.6445C124.468 25.1705 124.435 25.7295 124.369 26.3215H113.892C114.09 28.7768 115.436 30.0037 117.932 30.0037C119.575 30.0037 121.14 29.4777 122.629 28.4256L123.68 31.745C122.98 32.3584 122.082 32.8416 120.987 33.1912C119.891 33.5408 118.754 33.7172 117.571 33.7172C115.884 33.7172 114.406 33.3891 113.138 32.7311C111.867 32.0732 110.882 31.1481 110.182 29.9542C109.482 28.7603 109.131 27.3735 109.131 25.7955C109.131 24.064 109.487 22.5255 110.198 21.1766C110.91 19.8294 111.884 18.7823 113.121 18.037C114.359 17.2916 115.754 16.9189 117.309 16.9189C119.499 16.9189 121.239 17.5818 122.531 18.9076V18.9093ZM113.991 23.8562H120.362C120.362 22.6723 120.105 21.7917 119.591 21.2096C119.077 20.6292 118.37 20.339 117.472 20.339C115.523 20.339 114.364 21.5114 113.991 23.8562Z" fill="white"/>
<path d="M138.623 16.9535C136.061 17.1513 134.211 18.0171 133.072 19.5506L133.237 17.3476H128.507L127.227 33.4549H132.186L132.843 25.0401C132.952 23.8347 133.291 22.9475 133.861 22.377C134.43 21.8081 135.37 21.4569 136.685 21.3249L139.427 21.0298L139.755 16.8892L138.623 16.9535Z" fill="white"/>
<path d="M155.256 18.4492C156.34 19.4683 156.883 21.0084 156.883 23.068C156.883 23.5495 156.871 23.9123 156.85 24.1531L156.126 33.455H151.429L151.594 31.252C151.177 32.0402 150.597 32.6487 149.852 33.0758C149.108 33.5028 148.243 33.7172 147.257 33.7172C146.185 33.7172 145.221 33.5094 144.368 33.0922C143.514 32.6767 142.845 32.1061 142.364 31.3822C141.883 30.66 141.643 29.8487 141.643 28.95C141.643 27.7231 141.954 26.737 142.578 25.9917C143.203 25.2463 144.193 24.7055 145.551 24.3641C146.908 24.0244 148.714 23.8546 150.969 23.8546H152.152L152.185 23.4275C152.251 22.4629 152.058 21.7571 151.61 21.3069C151.161 20.8584 150.422 20.6325 149.393 20.6325C148.582 20.6325 147.712 20.7759 146.781 21.0596C145.85 21.3448 144.969 21.7389 144.137 22.2435L143.053 18.9241C143.951 18.3321 145.068 17.8506 146.402 17.478C147.737 17.1053 149.04 16.9189 150.31 16.9189C152.521 16.9189 154.169 17.4285 155.253 18.4476L155.256 18.4492ZM150.889 29.3292C151.49 28.6828 151.836 27.8452 151.923 26.8145L151.956 26.2555H151.07C149.361 26.2555 148.169 26.4204 147.49 26.7486C146.811 27.0767 146.472 27.6357 146.472 28.4256C146.472 28.9962 146.669 29.4496 147.063 29.7893C147.457 30.129 147.982 30.2989 148.64 30.2989C149.538 30.2989 150.287 29.9756 150.889 29.3292Z" fill="white"/>
<path d="M174.832 18.416C175.751 19.4137 176.211 20.8763 176.211 22.804C176.211 23.2641 176.199 23.6153 176.178 23.8561L175.423 33.4548H170.464L171.219 24.0539C171.306 22.9804 171.136 22.1691 170.71 21.6217C170.283 21.0742 169.621 20.8005 168.723 20.8005C167.693 20.8005 166.884 21.1237 166.292 21.7701C165.701 22.4165 165.362 23.2987 165.274 24.4167L164.551 33.4565H159.592L160.872 17.3162H165.699L165.535 19.2224C166.103 18.4985 166.838 17.9345 167.736 17.5289C168.634 17.1232 169.64 16.9204 170.757 16.9204C172.553 16.9204 173.911 17.4184 174.83 18.416H174.832Z" fill="white"/>
<path d="M197.848 10.2816L196.009 33.4549H191.116L191.281 31.4497C190.755 32.1505 190.065 32.7046 189.211 33.1102C188.358 33.5159 187.427 33.7187 186.42 33.7187C185.063 33.7187 183.863 33.4071 182.824 32.7821C181.784 32.1571 180.978 31.2601 180.41 30.086C179.84 28.9136 179.557 27.5383 179.557 25.9602C179.557 24.2073 179.88 22.6457 180.525 21.2754C181.171 19.9068 182.074 18.8382 183.236 18.0698C184.396 17.303 185.732 16.9188 187.243 16.9188C189.432 16.9188 191.073 17.7301 192.169 19.3511L192.892 10.2783H197.851L197.848 10.2816ZM190.803 28.6233C191.47 27.7246 191.805 26.5308 191.805 25.0401C191.805 23.5494 191.498 22.5303 190.885 21.785C190.272 21.0396 189.396 20.667 188.257 20.667C187.119 20.667 186.15 21.1105 185.483 21.9977C184.816 22.8848 184.481 24.1068 184.481 25.6634C184.481 27.0436 184.793 28.1072 185.417 28.8525C186.041 29.5979 186.933 29.9706 188.094 29.9706C189.256 29.9706 190.136 29.522 190.805 28.6233H190.803Z" fill="white"/>
<path d="M204.154 32.7324C202.883 32.0744 201.905 31.1494 201.214 29.9555C200.524 28.7616 200.18 27.3649 200.18 25.7638C200.18 23.968 200.536 22.3998 201.247 21.0641C201.959 19.7285 202.966 18.7028 204.269 17.9904C205.572 17.2781 207.088 16.9219 208.818 16.9219C210.548 16.9219 212.047 17.25 213.317 17.908C214.588 18.5659 215.568 19.491 216.257 20.6849C216.947 21.8804 217.291 23.2771 217.291 24.8766C217.291 26.6954 216.935 28.2686 216.224 29.5944C215.512 30.9202 214.505 31.9392 213.202 32.6516C211.899 33.364 210.383 33.7201 208.653 33.7201C206.923 33.7201 205.424 33.392 204.154 32.734V32.7324ZM211.429 28.5242C212.054 27.5595 212.365 26.2997 212.365 24.7447C212.365 22.0271 211.204 20.6684 208.884 20.6684C207.613 20.6684 206.666 21.1499 206.043 22.1145C205.419 23.0792 205.108 24.3275 205.108 25.8627C205.108 28.6017 206.267 29.972 208.589 29.972C209.859 29.972 210.806 29.4905 211.429 28.5258V28.5242Z" fill="white"/>
<path d="M102.865 27.1113L103.356 21.0298H106.424L106.719 17.3146H103.652L104.013 12.582H99.0541L98.6933 17.3146H95.6387L95.3438 21.0298H98.3967L97.9057 27.1113C97.8826 27.3075 97.8728 27.6043 97.8728 27.9984C97.8728 29.8832 98.4296 31.308 99.5467 32.271C100.664 33.2356 102.328 33.7171 104.539 33.7171C104.985 33.7171 105.442 33.6776 105.442 33.6776C105.822 33.6429 106.148 33.5951 106.409 33.5473L106.691 29.997C106.204 30.0448 105.783 30.0696 105.425 30.0696C103.565 30.0696 102.71 29.0835 102.865 27.1113Z" fill="white"/>
<path d="M1.55817 11.2989L26.4562 0L26.4133 9.75213L0.0078125 21.7353L0.0440589 13.6388C0.047354 12.7236 0.726151 11.6748 1.55982 11.2972L1.55817 11.2989Z" fill="white"/>
<path d="M0.0428367 23.5525L26.4483 11.5693L26.4121 19.7582C26.4088 20.6223 25.7679 21.6117 24.982 21.9679L0 33.3047L0.0428367 23.5525Z" fill="white"/>
<path d="M0.0395415 35.173L11.9498 29.7676L11.9168 37.1567C11.9135 37.9515 11.3254 38.8601 10.6021 39.1883L0 44L0.037894 35.173H0.0395415Z" fill="white"/>
<path d="M22.2859 33.3886C24.5462 33.3886 26.3785 31.6514 26.3785 29.5085C26.3785 27.3656 24.5462 25.6284 22.2859 25.6284C20.0257 25.6284 18.1934 27.3656 18.1934 29.5085C18.1934 31.6514 20.0257 33.3886 22.2859 33.3886Z" fill="white"/>
</g>
<defs>
<clipPath id="clip0_2216_10563">
<rect width="217.292" height="44" fill="white"/>
</clipPath>
</defs>
</svg>
